<svg width="24" height="24" xmlns="http://www.w3.org/2000/svg" fill="none">

 <g>
  <title>Layer 1</title>
  <path id="svg_1" fill="#ffffff" d="m15.9999,7.00005c0,-0.55229 0.4478,-1 1,-1c0.5523,0 1,0.44771 1,1c0,0.55228 -0.4477,1 -1,1c-0.5522,0 -1,-0.44772 -1,-1z"/>
  <path id="svg_2" fill="#ffffff" d="m11.9999,7.25005c-2.62331,0 -4.74996,2.12664 -4.74996,4.74995c0,2.6234 2.12665,4.75 4.74996,4.75c2.6234,0 4.75,-2.1266 4.75,-4.75c0,-2.62331 -2.1266,-4.74995 -4.75,-4.74995zm-3.24996,4.74995c0,-1.7949 1.45506,-3.24995 3.24996,-3.24995c1.795,0 3.25,1.45505 3.25,3.24995c0,1.795 -1.455,3.25 -3.25,3.25c-1.7949,0 -3.24996,-1.455 -3.24996,-3.25z" clip-rule="evenodd" fill-rule="evenodd"/>
  <path id="svg_3" fill="#ffffff" d="m17.2582,2.83306c-3.4666,-0.38744 -7.0499,-0.38744 -10.51649,0c-2.01206,0.22488 -3.63639,1.80989 -3.87295,3.83242c-0.41453,3.54432 -0.41453,7.12482 0,10.66912c0.23656,2.0225 1.86089,3.6076 3.87295,3.8324c3.46659,0.3875 7.04989,0.3875 10.51649,0c2.012,-0.2248 3.6364,-1.8099 3.8729,-3.8324c0.4146,-3.5443 0.4146,-7.1248 0,-10.66912c-0.2365,-2.02253 -1.8608,-3.60754 -3.8729,-3.83242zm-10.34988,1.49072c3.35588,-0.37507 6.82738,-0.37507 10.18328,0c1.3301,0.14866 2.3956,1.19827 2.5497,2.51595c0.401,3.42857 0.401,6.89207 0,10.32067c-0.1541,1.3176 -1.2196,2.3673 -2.5497,2.5159c-3.3559,0.3751 -6.8274,0.3751 -10.18328,0c-1.33011,-0.1486 -2.3956,-1.1983 -2.54971,-2.5159c-0.401,-3.4286 -0.401,-6.8921 0,-10.32067c0.15411,-1.31768 1.2196,-2.36729 2.54971,-2.51595z" clip-rule="evenodd" fill-rule="evenodd"/>
 </g>
</svg>