<?xml version="1.0" standalone="no"?>
<!DOCTYPE svg PUBLIC "-//W3C//DTD SVG 20010904//EN"
 "http://www.w3.org/TR/2001/REC-SVG-20010904/DTD/svg10.dtd">
<svg version="1.0" xmlns="http://www.w3.org/2000/svg"
 width="1280.000000pt" height="886.000000pt" viewBox="0 0 1280.000000 886.000000"
 preserveAspectRatio="xMidYMid meet">
<metadata>
Created by potrace 1.15, written by Peter Selinger 2001-2017
</metadata>
<g transform="translate(0.000000,886.000000) scale(0.100000,-0.100000)"
fill="#000000" stroke="none">
<path d="M6385 8600 l-149 -260 -297 0 -297 0 -152 -260 -152 -260 -291 0
-292 0 -156 -267 -156 -268 -174 -3 c-96 -1 -223 1 -283 5 l-108 8 -142 247
-141 247 -300 1 -301 0 -144 255 -145 254 -310 1 -310 0 -150 -260 -150 -259
-300 -3 -299 -3 -152 -262 -153 -263 153 -267 153 -268 299 -3 c164 -1 302 -6
305 -10 22 -23 280 -485 277 -495 -2 -7 -68 -125 -147 -261 l-145 -249 -285 6
-286 6 -150 -256 -150 -256 -299 -1 -299 -1 -134 -230 c-74 -126 -143 -246
-155 -266 l-20 -36 152 -266 153 -267 297 0 297 0 137 -239 c75 -131 136 -241
136 -244 0 -2 -65 -116 -145 -253 -80 -137 -145 -252 -145 -256 0 -5 68 -127
151 -273 l152 -265 297 0 297 0 147 -256 146 -256 -147 -251 c-80 -138 -146
-256 -146 -263 0 -6 67 -129 149 -272 l149 -261 299 -3 299 -3 146 -257 146
-257 310 -1 311 0 150 257 150 258 283 0 283 0 147 -255 146 -255 300 -5 299
-5 146 -255 146 -255 309 -2 310 -3 150 260 150 259 299 3 299 3 150 257 150
258 281 0 281 0 148 -260 148 -260 298 0 297 0 148 -260 149 -260 309 2 310 3
150 257 150 258 296 0 297 0 150 257 c83 142 150 265 150 273 0 9 -67 134
-150 278 l-149 262 -297 0 -297 0 -146 255 c-80 140 -146 259 -146 264 0 5 63
117 141 250 l141 241 297 0 297 0 150 257 149 258 297 5 298 5 148 255 149
255 299 3 299 3 154 265 153 265 -153 269 -154 270 -300 0 -301 0 -144 253
-145 252 -309 0 -310 0 -146 -250 -146 -250 -290 -3 -291 -2 -149 260 -148
260 -302 0 -302 0 -140 243 -139 244 149 256 149 255 302 -5 303 -6 154 264
c84 145 153 268 153 275 0 6 -67 128 -149 272 l-149 262 -311 0 -310 0 -149
-255 -148 -255 -291 0 -292 0 -142 249 c-78 137 -142 254 -142 260 0 7 66 125
146 262 80 138 144 254 142 258 -2 5 -70 126 -153 270 l-150 261 -297 0 -296
0 -149 260 -148 260 -310 -1 -310 0 -150 -259z m5886 -3930 l207 0 142 -246
c78 -135 140 -251 138 -258 -2 -6 -66 -121 -143 -254 l-140 -242 -289 3 -290
2 -142 247 -141 247 109 188 c61 103 128 219 150 257 l40 69 76 -7 c41 -3 168
-6 283 -6z"/>
</g>
</svg>
